<?xml version="1.0" encoding="utf-8"?>
<!-- Generator: Adobe Illustrator 19.1.0, SVG Export Plug-In . SVG Version: 6.00 Build 0)  -->
<svg version="1.1" id="Isolation_Mode" xmlns="http://www.w3.org/2000/svg" xmlns:xlink="http://www.w3.org/1999/xlink" x="0px"
	 y="0px" viewBox="0 0 37.5 64.7" style="enable-background:new 0 0 37.5 64.7;" xml:space="preserve">
<style type="text/css">
	.st0{fill:#ffffff66;}
	.st1{fill:#ffffff66;}
</style>
<path class="st0" d="M18.7,64.7c-0.5,0-1-0.2-1.2-0.7L0.3,38.8c-0.5-0.7-0.3-1.6,0.4-2.1c0.7-0.5,1.6-0.3,2.1,0.4l16,23.4l16-23.4
	c0.5-0.7,1.4-0.9,2.1-0.4c0.7,0.5,0.9,1.4,0.4,2.1L20,64.1C19.7,64.5,19.2,64.7,18.7,64.7"/>
<path class="st1" d="M19,61c-0.8,0-1.5-0.7-1.5-1.5v-58C17.5,0.7,18.1,0,19,0c0.8,0,1.5,0.7,1.5,1.5v58C20.5,60.3,19.8,61,19,61"/>
</svg>
